<?xml version="1.0" encoding="UTF-8"?>
<!DOCTYPE svg PUBLIC "-//W3C//DTD SVG 1.1//EN" "http://www.w3.org/Graphics/SVG/1.1/DTD/svg11.dtd">
<svg xmlns="http://www.w3.org/2000/svg" version="1.1" width="892px" height="624px" style="shape-rendering:geometricPrecision; text-rendering:geometricPrecision; image-rendering:optimizeQuality; fill-rule:evenodd; clip-rule:evenodd" xmlns:xlink="http://www.w3.org/1999/xlink">
<g><path style="opacity:0.995" fill="#0aad09" d="M 476.5,52.5 C 528.317,55.6533 559.317,82.6533 569.5,133.5C 580.485,134.332 591.485,134.832 602.5,135C 608.192,137.206 611.359,141.373 612,147.5C 614.011,161.234 616.345,174.901 619,188.5C 629.708,177.959 640.208,167.292 650.5,156.5C 658.167,163.5 665.5,170.833 672.5,178.5C 627.014,224.486 581.347,270.32 535.5,316C 534.833,316.667 534.167,316.667 533.5,316C 528.302,310.467 522.802,305.3 517,300.5C 514.302,324.74 512.135,349.073 510.5,373.5C 534.861,370.246 559.194,366.746 583.5,363C 578.968,358.133 574.134,353.633 569,349.5C 568.333,348.833 568.333,348.167 569,347.5C 590.333,326.167 611.667,304.833 633,283.5C 640.822,329.082 648.322,374.749 655.5,420.5C 655.032,427.133 651.699,431.633 645.5,434C 543.5,434.667 441.5,434.667 339.5,434C 373.667,399.833 407.833,365.667 442,331.5C 446.633,337.135 451.633,342.468 457,347.5C 460.338,323.457 463.838,299.457 467.5,275.5C 466,275.167 464.5,274.833 463,274.5C 439.842,276.435 416.675,278.269 393.5,280C 398.884,285.929 404.384,291.762 410,297.5C 410.667,298.167 410.667,298.833 410,299.5C 364.5,345 319,390.5 273.5,436C 272.833,436.667 272.167,436.667 271.5,436C 264.667,429.167 257.833,422.333 251,415.5C 251.893,412.564 253.726,410.064 256.5,408C 275.809,391.081 294.642,373.581 313,355.5C 324.667,284.165 336.334,212.832 348,141.5C 349.981,138.255 352.814,136.089 356.5,135C 367.495,134.5 378.495,134.333 389.5,134.5C 393.896,98.2754 412.896,73.1087 446.5,59C 456.381,55.5928 466.381,53.4262 476.5,52.5 Z M 477.5,85.5 C 502.831,86.2364 520.998,97.9031 532,120.5C 533.893,125.007 535.059,129.673 535.5,134.5C 497.833,134.5 460.167,134.5 422.5,134.5C 429.279,105.048 447.612,88.7145 477.5,85.5 Z"/></g>
<g><path style="opacity:0.978" fill="#0aad09" d="M 74.5,487.5 C 79.8437,487.334 85.1771,487.501 90.5,488C 94,492.833 97.5,497.667 101,502.5C 104.5,497.667 108,492.833 111.5,488C 116.823,487.501 122.156,487.334 127.5,487.5C 127.18,514.032 127.513,540.532 128.5,567C 128.355,567.772 128.022,568.439 127.5,569C 122.845,569.499 118.179,569.666 113.5,569.5C 113.667,549.497 113.5,529.497 113,509.5C 109.389,515.444 105.389,521.111 101,526.5C 96.9429,521.442 93.2762,516.108 90,510.5C 89.6667,529.833 89.3333,549.167 89,568.5C 84.2633,569.469 79.43,569.803 74.5,569.5C 74.5,542.167 74.5,514.833 74.5,487.5 Z"/></g>
<g><path style="opacity:0.954" fill="#0aad09" d="M 151.5,487.5 C 156.5,487.5 161.5,487.5 166.5,487.5C 166.5,514.833 166.5,542.167 166.5,569.5C 161.5,569.5 156.5,569.5 151.5,569.5C 151.5,542.167 151.5,514.833 151.5,487.5 Z"/></g>
<g><path style="opacity:0.98" fill="#0aad09" d="M 190.5,487.5 C 194.555,487.176 198.555,487.509 202.5,488.5C 208.667,502.833 214.833,517.167 221,531.5C 221.007,516.839 220.84,502.173 220.5,487.5C 225.167,487.5 229.833,487.5 234.5,487.5C 234.5,514.833 234.5,542.167 234.5,569.5C 230.563,569.793 226.73,569.46 223,568.5C 216.393,554.953 210.06,541.287 204,527.5C 204.089,541.491 204.256,555.491 204.5,569.5C 199.833,569.5 195.167,569.5 190.5,569.5C 190.5,542.167 190.5,514.833 190.5,487.5 Z"/></g>
<g><path style="opacity:0.957" fill="#0aad09" d="M 257.5,487.5 C 262.5,487.5 267.5,487.5 272.5,487.5C 272.333,508.503 272.5,529.503 273,550.5C 276.013,555.535 280.18,556.702 285.5,554C 286.701,553.097 287.535,551.931 288,550.5C 288.5,529.503 288.667,508.503 288.5,487.5C 293.5,487.5 298.5,487.5 303.5,487.5C 303.667,509.169 303.5,530.836 303,552.5C 297.765,567.035 287.598,572.535 272.5,569C 264.836,566.002 260.003,560.502 258,552.5C 257.5,530.836 257.333,509.169 257.5,487.5 Z"/></g>
<g><path style="opacity:0.973" fill="#0aad09" d="M 322.5,487.5 C 337.833,487.5 353.167,487.5 368.5,487.5C 368.5,492.167 368.5,496.833 368.5,501.5C 363.167,501.5 357.833,501.5 352.5,501.5C 352.5,524.167 352.5,546.833 352.5,569.5C 347.5,569.5 342.5,569.5 337.5,569.5C 337.5,546.833 337.5,524.167 337.5,501.5C 332.5,501.5 327.5,501.5 322.5,501.5C 322.5,496.833 322.5,492.167 322.5,487.5 Z"/></g>
<g><path style="opacity:0.994" fill="#0aad09" d="M 387.5,487.5 C 400.5,487.5 413.5,487.5 426.5,487.5C 426.5,492.167 426.5,496.833 426.5,501.5C 418.5,501.5 410.5,501.5 402.5,501.5C 402.5,507.5 402.5,513.5 402.5,519.5C 410.5,519.5 418.5,519.5 426.5,519.5C 426.5,524.5 426.5,529.5 426.5,534.5C 418.5,534.5 410.5,534.5 402.5,534.5C 402.5,541.167 402.5,547.833 402.5,554.5C 410.5,554.5 418.5,554.5 426.5,554.5C 426.5,559.5 426.5,564.5 426.5,569.5C 413.5,569.5 400.5,569.5 387.5,569.5C 387.5,542.167 387.5,514.833 387.5,487.5 Z"/></g>
<g><path style="opacity:0.956" fill="#0aad09" d="M 482.5,487.5 C 492.172,487.334 501.839,487.5 511.5,488C 526.023,493.21 531.523,503.376 528,518.5C 526.569,521.927 524.402,524.76 521.5,527C 528.092,533.886 530.259,542.052 528,551.5C 524.631,560.871 518.131,566.704 508.5,569C 499.84,569.5 491.173,569.666 482.5,569.5C 482.5,542.167 482.5,514.833 482.5,487.5 Z M 500.5,501.5 C 508.986,501.151 512.82,505.151 512,513.5C 508.676,519.608 504.01,520.941 498,517.5C 497.333,512.833 497.333,508.167 498,503.5C 498.995,502.934 499.828,502.267 500.5,501.5 Z M 499.5,534.5 C 506.508,534.008 510.841,537.174 512.5,544C 512.237,550.236 508.904,553.069 502.5,552.5C 501.106,552.379 499.772,552.046 498.5,551.5C 496.958,545.572 497.292,539.905 499.5,534.5 Z"/></g>
<g><path style="opacity:0.965" fill="#0aad09" d="M 559.5,487.5 C 565.758,487.19 571.924,487.524 578,488.5C 582.718,515.476 587.218,542.476 591.5,569.5C 586.786,569.827 582.12,569.493 577.5,568.5C 576.885,565.961 576.218,563.461 575.5,561C 570.511,560.501 565.511,560.334 560.5,560.5C 560.148,563.428 559.482,566.262 558.5,569C 553.845,569.499 549.179,569.666 544.5,569.5C 549.074,542.056 554.074,514.722 559.5,487.5 Z M 567.5,515.5 C 568.117,515.611 568.617,515.944 569,516.5C 570.269,526.22 571.769,535.887 573.5,545.5C 570.232,546.487 566.898,546.82 563.5,546.5C 564.942,536.182 566.275,525.849 567.5,515.5 Z"/></g>
<g><path style="opacity:0.947" fill="#0aad09" d="M 608.5,487.5 C 623.167,487.5 637.833,487.5 652.5,487.5C 652.666,492.511 652.499,497.511 652,502.5C 643.167,519.5 634.333,536.5 625.5,553.5C 634.482,554.332 643.482,554.832 652.5,555C 653.632,559.413 653.799,563.913 653,568.5C 637.911,569.491 622.745,569.824 607.5,569.5C 607.334,564.821 607.501,560.155 608,555.5C 617.167,537.833 626.333,520.167 635.5,502.5C 626.852,501.668 618.186,501.168 609.5,501C 608.533,496.599 608.2,492.099 608.5,487.5 Z"/></g>
<g><path style="opacity:0.965" fill="#0aad09" d="M 683.5,487.5 C 689.833,487.5 696.167,487.5 702.5,487.5C 706.843,514.559 711.51,541.559 716.5,568.5C 711.544,569.494 706.544,569.827 701.5,569.5C 701.296,566.482 700.963,563.482 700.5,560.5C 695.167,560.5 689.833,560.5 684.5,560.5C 684.492,563.545 684.159,566.545 683.5,569.5C 678.309,569.942 673.309,569.442 668.5,568C 673.873,541.265 678.873,514.431 683.5,487.5 Z M 692.5,515.5 C 694.802,525.599 696.469,535.932 697.5,546.5C 694.167,546.5 690.833,546.5 687.5,546.5C 689.064,536.115 690.731,525.782 692.5,515.5 Z"/></g>
<g><path style="opacity:0.967" fill="#0aad09" d="M 747.5,487.5 C 753.833,487.5 760.167,487.5 766.5,487.5C 771.382,514.794 776.049,542.127 780.5,569.5C 775.821,569.666 771.155,569.499 766.5,569C 765.518,566.262 764.852,563.428 764.5,560.5C 759.489,560.334 754.489,560.501 749.5,561C 748.833,563.667 748.167,566.333 747.5,569C 742.845,569.499 738.179,569.666 733.5,569.5C 738.296,542.188 742.962,514.855 747.5,487.5 Z M 756.5,513.5 C 758.989,524.245 760.655,535.245 761.5,546.5C 758.102,546.82 754.768,546.487 751.5,545.5C 753.815,534.94 755.482,524.274 756.5,513.5 Z"/></g>
<g><path style="opacity:0.974" fill="#0aad09" d="M 801.5,487.5 C 811.839,487.334 822.172,487.5 832.5,488C 845.866,492.894 851.366,502.394 849,516.5C 847.733,520.869 845.567,524.703 842.5,528C 844.986,531.137 846.819,534.637 848,538.5C 848.5,548.828 848.666,559.161 848.5,569.5C 843.5,569.5 838.5,569.5 833.5,569.5C 833.666,559.828 833.5,550.161 833,540.5C 831.833,538 830,536.167 827.5,535C 823.848,534.501 820.182,534.335 816.5,534.5C 816.5,546.167 816.5,557.833 816.5,569.5C 811.5,569.5 806.5,569.5 801.5,569.5C 801.5,542.167 801.5,514.833 801.5,487.5 Z M 816.5,501.5 C 821.14,501.039 825.807,501.539 830.5,503C 833.72,505.039 835.22,507.873 835,511.5C 832.489,514.343 829.656,516.843 826.5,519C 822.82,520.027 819.653,519.194 817,516.5C 816.501,511.511 816.334,506.511 816.5,501.5 Z"/></g>
</svg>
